<?xml version="1.0" encoding="UTF-8" standalone="no"?>
<svg
  id="kafkatorio-logo"
  version="1.1"
  viewBox="0 0 132.29166 132.29167"
  height="500"
  width="500"
  xmlns="http://www.w3.org/2000/svg">
  <defs
    id="defs887">
    <linearGradient
      id="linearGradient24276">
      <stop
        style="stop-color:#ffffff;stop-opacity:1;"
        offset="0"
        id="stop24274" />
    </linearGradient>
  </defs>
  <g
    id="layer4"
    style="display:inline">
    <g
      id="g3104">
      <rect
        style="font-variation-settings:normal;display:inline;vector-effect:none;fill:#000000;fill-opacity:1;stroke:#000000;stroke-width:0.159004;stroke-linecap:butt;stroke-linejoin:miter;stroke-miterlimit:4;stroke-dasharray:none;stroke-dashoffset:0;stroke-opacity:1;-inkscape-stroke:none;paint-order:markers stroke fill;stop-color:#000000"
        id="rect22651"
        width="132.29167"
        height="132.29167"
        x="0.079501145"
        y="0.079499409"
        ry="15.697195" />
      <rect
        style="font-variation-settings:normal;display:inline;fill:#ffffff;fill-opacity:1;stroke:none;stroke-width:0.150548;stroke-linecap:butt;stroke-linejoin:miter;stroke-miterlimit:4;stroke-dasharray:none;stroke-dashoffset:0;stroke-opacity:1;paint-order:markers stroke fill;stop-color:#000000"
        id="rect28806"
        width="125.36403"
        height="125.36403"
        x="3.5433378"
        y="3.5433209"
        ry="14.875189" />
    </g>
  </g>
  <g
    id="g7215"
    style="display:inline">
    <g
      id="g9039"
      style="fill:#2f2f2f;fill-opacity:1;font-variation-settings:normal;opacity:1;vector-effect:none;stroke:none;stroke-width:0.277019;stroke-linecap:butt;stroke-linejoin:miter;stroke-miterlimit:4;stroke-dasharray:none;stroke-dashoffset:0;stroke-opacity:1;-inkscape-stroke:none;paint-order:markers stroke fill;stop-color:#000000;stop-opacity:1">
      <path
        id="path2906"
        style="font-variation-settings:normal;display:inline;vector-effect:none;fill:#2f2f2f;fill-opacity:1;stroke:none;stroke-width:1.04700096;stroke-linecap:butt;stroke-linejoin:miter;stroke-miterlimit:4;stroke-dasharray:none;stroke-dashoffset:0;stroke-opacity:1;-inkscape-stroke:none;paint-order:markers stroke fill;stop-color:#000000;opacity:1;stop-opacity:1"
        d="m 177.00391,116.69531 v 60.4961 c -9.73134,1.70815 -18.8058,5.33994 -26.82032,10.48437 l -14.75976,-10.16797 -0.20313,-0.16211 c -6.08162,3.89957 -11.43071,9.25469 -15.90234,15.69922 l -0.0918,-0.0586 10.08789,14.89453 c -5.31415,7.70625 -9.18803,16.4722 -11.23242,25.91992 l -17.80273,2.87891 -0.25977,0.0234 c -1.697347,7.02192 -1.858163,14.58862 -0.632811,22.33594 l -0.109375,0.0215 18.224606,3.92187 0.16993,-0.0703 c 1.70045,9.13524 5.14078,17.99127 10.29687,26.03125 l -0.17773,0.0801 -10.39063,14.75976 -0.16601,0.20313 c 3.83719,6.12056 9.1367,11.52408 15.53515,16.06055 l -0.0586,0.0918 15.53711,-10.29297 c 8.97962,6.16727 18.98443,10.09232 29.26367,11.80469 v 62.12305 h 24.35547 V 321.6172 c 15.62848,-2.64498 30.51426,-10.36344 41.98047,-23.02344 0.90915,-1.00382 1.78144,-2.02833 2.625,-3.06836 l 54.59765,35.54688 11.86133,-21.44336 -54.42383,-35.42969 c 0.0994,-0.27357 0.18488,-0.55315 0.28125,-0.82813 2.64834,-7.55642 4.17188,-15.63687 4.17188,-24.08593 0,-8.60478 -1.56797,-16.82976 -4.30469,-24.50586 L 311.125,187.99805 299.21289,166.60938 246.72656,203.40039 C 235.6081,189.60708 219.599,179.97686 201.35938,177.03711 v -60.07813 z m 12.68359,94.22852 c 21.15216,0 38.36133,17.20803 38.36133,38.36133 0,21.15216 -17.20917,38.35742 -38.36133,38.35742 -21.15326,0 -38.36133,-17.20526 -38.36133,-38.35742 0,-21.1533 17.20807,-38.36133 38.36133,-38.36133 z"
        transform="scale(0.26458333)" />
      <path
        id="path7213"
        style="color:#000000;fill:#2f2f2f;stroke:none;stroke-width:0.277019;-inkscape-stroke:none;paint-order:markers stroke fill;fill-opacity:1;font-variation-settings:normal;vector-effect:none;stroke-linecap:butt;stroke-linejoin:miter;stroke-miterlimit:4;stroke-dasharray:none;stroke-dashoffset:0;stroke-opacity:1;stop-color:#000000;stop-opacity:1"
        d="m 50.128106,8.9533314 c -0.533535,0.00315 -1.076759,0.051081 -1.62419,0.1421101 l -0.145727,0.025321 0.02481,0.1028361 -0.582909,2.8101644 c -1.466601,0.297805 -2.828065,0.864653 -4.035414,1.644344 l -2.322857,-1.584916 -0.0031,0.0026 -0.06563,-0.105421 -0.117306,0.077 c -0.985745,0.638295 -1.849646,1.509846 -2.567802,2.5554 l -0.08268,0.123507 0.09147,0.05374 1.591636,2.325439 c -0.787769,1.197243 -1.362,2.542733 -1.673293,3.980124 l -2.732132,0.535885 v 0.0036 l -0.123508,-0.02791 -0.02687,0.136942 c -0.23695,1.15021 -0.221318,2.377698 0.01964,3.623035 l 0.02894,0.145727 0.103354,-0.0279 2.703711,0.486276 c 0.29917,1.469819 0.868,2.834569 1.651061,4.04368 l -1.603518,2.281516 10e-4,0.0015 -0.107487,0.0646 0.07441,0.118853 c 0.624089,0.994796 1.485112,1.870363 2.52026,2.60346 l 0.121441,0.08682 0.05633,-0.09353 2.395201,-1.5875 c 1.194732,0.782899 2.536923,1.353658 3.969785,1.662945 l 0.515731,2.771926 h 0.0031 l -0.02894,0.122989 0.138493,0.02946 c 1.147731,0.248642 2.373717,0.244102 3.621484,0.0155 l 0.147794,-0.02687 -0.02739,-0.104902 0.531749,-2.790529 c 1.458415,-0.301307 2.812471,-0.868637 4.013192,-1.646928 l 2.35748,1.592668 0.0021,-0.0021 0.06615,0.104902 0.117306,-0.07648 c 0.98248,-0.643308 1.842571,-1.521182 2.555401,-2.570385 l 0.0827,-0.123507 -0.093,-0.05374 -1.612312,-2.332675 c 0.757187,-1.157091 1.315212,-2.452105 1.629882,-3.833874 l 2.74763,-0.481624 v -0.0021 l 0.12144,0.02997 0.031,-0.136426 c 0.26059,-1.145077 0.27002,-2.373503 0.0548,-3.623551 l -0.0269,-0.147795 -0.10645,0.02635 -2.74609,-0.552938 c -0.28086,-1.447346 -0.823273,-2.797849 -1.576674,-4.00124 l 1.626254,-2.244307 -0.001,-10e-4 0.10749,-0.06304 -0.0724,-0.120923 c -0.609755,-1.003638 -1.457459,-1.891281 -2.482,-2.63912 l -0.120406,-0.08837 -0.05839,0.09405 -2.397786,1.539958 C 55.568068,12.999715 54.18603,12.395711 52.701598,12.070453 L 52.235993,9.323851 h -0.0031 l 0.03049,-0.1209228 -0.135911,-0.033073 C 51.484233,9.0195324 50.814086,8.9492834 50.128111,8.953331 Z m 0.09974,9.9937046 c 0.839637,0.01115 1.627074,0.243738 2.305286,0.643372 0,0 5.16e-4,0 5.16e-4,0 1.294561,0.762983 2.190752,2.13424 2.289265,3.734139 0.158403,2.572068 -1.795772,4.782211 -4.367176,4.942851 -0.0012,7.6e-5 -0.0029,4.41e-4 -0.0041,5.15e-4 -1.206166,0.07428 -2.332545,-0.315841 -3.20549,-1.015957 0,0 -5.16e-4,0 -5.16e-4,0 -0.116398,-0.09337 -0.227899,-0.19258 -0.334862,-0.296622 -0.106966,-0.104042 -0.209219,-0.213127 -0.305924,-0.327112 -0.62859,-0.740902 -1.031664,-1.684077 -1.096058,-2.72955 -0.02475,-0.401926 0.0023,-0.795244 0.07493,-1.173055 0,0 0,-5.17e-4 0,-5.17e-4 0.392531,-2.041 2.122953,-3.635537 4.294312,-3.769279 0.116091,-0.0072 0.233547,-0.0103 0.34985,-0.0088 z" />
      <path
        id="path7752"
        style="color:#000000;fill:#2f2f2f;stroke:none;stroke-width:0.277019;-inkscape-stroke:none;paint-order:markers stroke fill;fill-opacity:1;font-variation-settings:normal;vector-effect:none;stroke-linecap:butt;stroke-linejoin:miter;stroke-miterlimit:4;stroke-dasharray:none;stroke-dashoffset:0;stroke-opacity:1;stop-color:#000000;stop-opacity:1"
        d="m 90.621778,30.353755 c -0.514798,-0.140187 -1.050973,-0.23974 -1.602753,-0.298951 l -0.147177,-0.01471 -0.0037,0.105722 -1.315631,2.550671 c -1.492725,-0.106678 -2.956366,0.07403 -4.32866,0.501137 l -1.81235,-2.150119 -0.0037,0.0017 -0.03493,-0.119166 -0.133667,0.0427 c -1.120875,0.35036 -2.186969,0.958118 -3.159357,1.772608 l -0.11279,0.09679 0.07369,0.07631 0.909231,2.667259 c -1.080154,0.941935 -1.994383,2.083981 -2.679979,3.385116 l -2.775727,-0.216933 -9.66e-4,0.0035 -0.111488,-0.06003 -0.06263,0.124709 c -0.536916,1.044437 -0.851251,2.231098 -0.953315,3.495419 l -0.01123,0.148148 0.10705,8.58e-4 2.474053,1.193977 c -0.106226,1.49619 0.07551,2.963529 0.505389,4.338425 l -2.156945,1.767533 5.61e-4,0.0017 -0.12088,0.03339 0.03979,0.134462 c 0.334247,1.125782 0.928732,2.200289 1.729188,3.184277 l 0.09369,0.116224 0.07936,-0.07498 2.733353,-0.886526 c 0.940822,1.074788 2.080622,1.984787 3.377933,2.667236 l -0.247027,2.808653 0.003,8.32e-4 -0.06088,0.110712 0.125508,0.06554 c 1.038912,0.547514 2.22115,0.872132 3.484496,0.986751 l 0.149584,0.01378 0.0018,-0.108404 1.261079,-2.545484 c 1.485779,0.101107 2.942413,-0.08206 4.307947,-0.509589 l 1.843622,2.166877 0.0026,-0.0015 0.03557,0.118806 0.133527,-0.0422 c 1.119075,-0.356066 2.183196,-0.970938 3.151432,-1.790372 l 0.11281,-0.09678 -0.07517,-0.07673 -0.927207,-2.679778 c 1.039919,-0.911461 1.924991,-2.009232 2.598915,-3.255879 l 2.7761,0.273363 5.6e-4,-0.002 0.108943,0.06146 0.0665,-0.123103 c 0.55831,-1.033149 0.89704,-2.213988 1.02516,-3.475941 l 0.0138,-0.149593 -0.10962,-0.0032 -2.496993,-1.269566 c 0.117834,-1.469629 -0.04228,-2.916153 -0.44512,-4.27758 l 2.168863,-1.725588 -6.9e-4,-0.0012 0.12046,-0.03188 -0.0373,-0.135916 c -0.318073,-1.130453 -0.896487,-2.213019 -1.682769,-3.208363 l -0.09228,-0.117439 -0.08149,0.07493 -2.723085,0.840033 c -0.95337,-1.124284 -2.122634,-2.077002 -3.465338,-2.788675 l 0.288519,-2.770806 -0.003,-8.32e-4 0.06182,-0.108306 -0.122051,-0.06833 c -0.579308,-0.317422 -1.206024,-0.564927 -1.867925,-0.745108 z m -2.585711,9.653921 c 0.805849,0.236056 1.501989,0.67142 2.048085,1.238394 0,0 4.97e-4,1.38e-4 4.97e-4,1.38e-4 1.042334,1.082391 1.53768,2.643845 1.20325,4.211498 -0.537617,2.520237 -3.013205,4.124917 -5.533402,3.589634 -0.0012,-2.49e-4 -0.0029,-3.54e-4 -0.0041,-6.04e-4 -1.181859,-0.252117 -2.162236,-0.930191 -2.815289,-1.838882 0,0 -4.97e-4,-1.38e-4 -4.97e-4,-1.38e-4 -0.08707,-0.121181 -0.167861,-0.246673 -0.242982,-0.375602 -0.07512,-0.12893 -0.144353,-0.261454 -0.206923,-0.397209 -0.406715,-0.882408 -0.541906,-1.899153 -0.323387,-2.92356 0.08401,-0.393826 0.215618,-0.765459 0.386969,-1.109923 0,0 1.39e-4,-4.98e-4 1.39e-4,-4.98e-4 0.925832,-1.860805 3.020677,-2.932502 5.148284,-2.478658 0.113765,0.02422 0.227745,0.05275 0.33938,0.0854 z" />
      <path
        id="path7754"
        style="color:#000000;fill:#2f2f2f;stroke:none;stroke-width:0.277019;-inkscape-stroke:none;paint-order:markers stroke fill;fill-opacity:1;font-variation-settings:normal;vector-effect:none;stroke-linecap:butt;stroke-linejoin:miter;stroke-miterlimit:4;stroke-dasharray:none;stroke-dashoffset:0;stroke-opacity:1;stop-color:#000000;stop-opacity:1"
        d="m 82.977619,73.20863 c -0.511668,0.151213 -1.020175,0.34823 -1.520761,0.587771 l -0.132955,0.06481 0.0524,0.09189 0.2208,2.861479 c -1.326119,0.693552 -2.476491,1.616344 -3.419681,2.70078 l -2.671748,-0.877147 -0.0022,0.0033 -0.09234,-0.08303 -0.09129,0.10656 c -0.769595,0.887038 -1.357337,1.964297 -1.756728,3.168214 l -0.04511,0.141616 0.1028,0.02621 2.175057,1.791673 c -0.424118,1.368976 -0.601918,2.821033 -0.501599,4.288321 l -2.475679,1.273866 0.001,0.0035 -0.1264,0.0075 0.01225,0.139015 c 0.09195,1.170758 0.448,2.345575 1.025469,3.474936 l 0.06829,0.131949 0.09153,-0.05552 2.732367,-0.284053 c 0.695758,1.328832 1.621366,2.481809 2.70953,3.425755 l -0.906503,2.637202 0.0014,0.0012 -0.0853,0.09192 0.104502,0.0935 c 0.875906,0.782236 1.946293,1.384113 3.144364,1.800743 l 0.140781,0.0496 0.02812,-0.1055 1.859838,-2.190461 c 1.36521,0.420138 2.813135,0.595519 4.275513,0.494531 l 1.265561,2.51949 0.003,-8.5e-4 0.0064,0.12618 0.141243,-0.01 c 1.171623,-0.08 2.34808,-0.425 3.483208,-0.99128 l 0.134503,-0.0669 -0.05546,-0.0931 -0.26449,-2.828397 c 1.317283,-0.694642 2.460405,-1.615839 3.397617,-2.697089 l 2.707161,0.874974 0.0014,-0.0026 0.09269,0.0824 0.09143,-0.106061 c 0.765066,-0.890946 1.347391,-1.97322 1.740651,-3.179164 l 0.0451,-0.141621 -0.10427,-0.02579 -2.19693,-1.79288 c 0.405897,-1.321908 0.582153,-2.720975 0.500531,-4.135768 l 2.505639,-1.226046 -5.8e-4,-0.002 0.12498,-0.005 -0.008,-0.139676 c -0.0679,-1.172394 -0.40005,-2.355076 -0.9541,-3.496113 l -0.0669,-0.134503 -0.0949,0.05488 -2.791593,0.231788 c -0.671924,-1.312331 -1.568198,-2.458962 -2.62628,-3.405654 l 0.938681,-2.607775 -0.0012,-6.84e-4 0.08574,-0.09042 -0.103146,-0.09604 c -0.864594,-0.794713 -1.92554,-1.411888 -3.11752,-1.845631 l -0.140217,-0.05144 -0.02996,0.10657 -1.87553,2.145515 C 89.327899,75.584406 87.83246,75.38816 86.316104,75.488133 l -1.210374,-2.509104 -0.003,8.61e-4 -0.0043,-0.124634 -0.139749,0.006 c -0.659678,0.03431 -1.322958,0.153015 -1.980802,0.347491 z m 2.872405,9.572533 c 0.809678,-0.222569 1.630733,-0.217914 2.393276,-0.02244 0,0 4.95e-4,-1.43e-4 4.95e-4,-1.43e-4 1.455576,0.37327 2.697465,1.441547 3.236606,2.951085 0.866774,2.426795 -0.39641,5.092859 -2.821943,5.961597 -0.0011,4.06e-4 -0.0027,0.0013 -0.0038,0.0017 -1.138041,0.40647 -2.328463,0.344655 -3.361555,-0.08536 0,0 -4.95e-4,1.43e-4 -4.95e-4,1.43e-4 -0.137757,-0.05735 -0.272432,-0.121679 -0.40409,-0.191907 -0.131661,-0.07023 -0.260196,-0.146608 -0.384762,-0.229238 -0.80969,-0.537088 -1.45894,-1.331141 -1.811268,-2.317562 -0.135444,-0.379226 -0.218736,-0.764574 -0.253935,-1.14769 0,0 -1.44e-4,-4.96e-4 -1.44e-4,-4.96e-4 -0.189982,-2.069702 1.029295,-4.082231 3.078007,-4.813986 0.10952,-0.03917 0.22149,-0.07479 0.333632,-0.105655 z" />
      <path
        id="path7756"
        style="color:#000000;fill:#2f2f2f;stroke:none;stroke-width:0.277019;-inkscape-stroke:none;paint-order:markers stroke fill;fill-opacity:1;font-variation-settings:normal;vector-effect:none;stroke-linecap:butt;stroke-linejoin:miter;stroke-miterlimit:4;stroke-dasharray:none;stroke-dashoffset:0;stroke-opacity:1;stop-color:#000000;stop-opacity:1"
        d="m 50.246826,94.1604 c -0.533535,0.0031 -1.076759,0.05108 -1.62419,0.14211 l -0.145727,0.02532 0.02481,0.102836 -0.582909,2.810165 c -1.466601,0.297805 -2.828065,0.864653 -4.035414,1.644344 l -2.322857,-1.584916 -0.0031,0.0026 -0.06563,-0.105421 -0.117306,0.077 c -0.985745,0.638295 -1.849646,1.509846 -2.567802,2.5554 l -0.08268,0.123505 0.09147,0.0537 1.591636,2.32544 c -0.787769,1.19724 -1.362,2.54273 -1.673293,3.98012 l -2.732132,0.53589 v 0.004 l -0.123508,-0.0279 -0.02687,0.13694 c -0.23695,1.15021 -0.221318,2.3777 0.01964,3.62304 l 0.02894,0.14572 0.103354,-0.0279 2.703711,0.48628 c 0.29917,1.46982 0.868,2.83457 1.651061,4.04368 l -1.603518,2.28152 0.001,0.001 -0.107487,0.0646 0.07441,0.11885 c 0.624089,0.99479 1.485112,1.87036 2.52026,2.60346 l 0.121441,0.0868 0.05633,-0.0935 2.395201,-1.5875 c 1.194732,0.7829 2.536923,1.35366 3.969785,1.66294 l 0.515731,2.77193 h 0.0031 l -0.02894,0.12299 0.138493,0.0295 c 1.147731,0.24864 2.373717,0.2441 3.621484,0.0155 l 0.147794,-0.0269 -0.02739,-0.1049 0.531749,-2.79053 c 1.458415,-0.30131 2.812471,-0.86864 4.013192,-1.64693 l 2.35748,1.59267 0.0021,-0.002 0.06615,0.1049 0.117306,-0.0765 c 0.98248,-0.64331 1.842571,-1.52118 2.555401,-2.57039 l 0.0827,-0.1235 -0.093,-0.0537 -1.612312,-2.33268 c 0.757187,-1.15709 1.315212,-2.4521 1.629882,-3.83387 L 64.554,110.96448 v -0.002 l 0.12144,0.03 0.031,-0.13642 c 0.26059,-1.14508 0.27002,-2.3735 0.0548,-3.62355 l -0.0269,-0.1478 -0.10645,0.0263 -2.746088,-0.55294 c -0.28086,-1.44734 -0.823273,-2.79784 -1.576674,-4.00124 l 1.626254,-2.2443 -10e-4,-10e-4 0.10749,-0.063 -0.0724,-0.12093 c -0.609755,-1.00363 -1.457459,-1.891273 -2.482,-2.639112 l -0.120406,-0.08837 -0.05839,0.09405 -2.397786,1.539958 c -1.220102,-0.827343 -2.60214,-1.431347 -4.086572,-1.756605 l -0.465605,-2.746602 h -0.0031 l 0.03049,-0.120923 -0.135911,-0.03307 c -0.643239,-0.150323 -1.313386,-0.220572 -1.999361,-0.216524 z m 0.09974,9.9937 c 0.839637,0.0112 1.627074,0.24374 2.305286,0.64337 0,0 5.16e-4,0 5.16e-4,0 1.294561,0.76299 2.190752,2.13424 2.289265,3.73414 0.158403,2.57207 -1.795772,4.78221 -4.367176,4.94285 -0.0012,8e-5 -0.0029,4.4e-4 -0.0041,5.2e-4 -1.206166,0.0743 -2.332545,-0.31584 -3.20549,-1.01596 0,0 -5.16e-4,0 -5.16e-4,0 -0.116398,-0.0934 -0.227899,-0.19258 -0.334862,-0.29662 -0.106966,-0.10404 -0.209219,-0.21313 -0.305924,-0.32711 -0.62859,-0.7409 -1.031664,-1.68408 -1.096058,-2.72955 -0.02475,-0.40193 0.0023,-0.79525 0.07493,-1.17306 0,0 0,-5.1e-4 0,-5.1e-4 0.392531,-2.041 2.122953,-3.63554 4.294312,-3.76928 0.116091,-0.007 0.233547,-0.0103 0.34985,-0.009 z" />
    </g>
  </g>
</svg>
